<svg xmlns="http://www.w3.org/2000/svg" width="1681" height="1681.001" viewBox="0 0 1681 1681.001"><path d="M-3454.5,2718c-14.385,0-28.937-.368-43.252-1.094-14.2-.72-28.565-1.812-42.684-3.246-14.01-1.423-28.163-3.221-42.064-5.345-13.8-2.109-27.73-4.6-41.39-7.391-13.575-2.778-27.256-5.936-40.664-9.385-13.328-3.429-26.748-7.24-39.885-11.326-26.074-8.11-52.055-17.619-77.221-28.263-24.932-10.545-49.651-22.453-73.472-35.393-23.651-12.848-46.966-27.013-69.3-42.1-22.224-15.014-43.994-31.293-64.7-48.385-20.659-17.049-40.74-35.3-59.687-54.247s-37.2-39.029-54.247-59.687c-17.09-20.708-33.37-42.479-48.386-64.7-15.088-22.333-29.252-45.649-42.1-69.3-12.94-23.822-24.849-48.541-35.393-73.472-10.644-25.166-20.153-51.147-28.263-77.221-4.086-13.137-7.9-26.557-11.327-39.885-3.447-13.4-6.6-27.08-9.385-40.664-2.8-13.674-5.284-27.6-7.391-41.39-2.124-13.894-3.921-28.046-5.345-42.064-1.434-14.113-2.525-28.474-3.246-42.684-.726-14.31-1.094-28.862-1.094-43.252s.368-28.942,1.094-43.252c.721-14.21,1.812-28.571,3.246-42.684,1.423-14.017,3.221-28.169,5.345-42.064,2.107-13.791,4.594-27.717,7.391-41.39,2.78-13.583,5.938-27.265,9.385-40.664,3.43-13.329,7.24-26.748,11.327-39.885,8.11-26.074,17.619-52.055,28.263-77.222,10.544-24.93,22.453-49.649,35.393-73.471,12.848-23.65,27.012-46.966,42.1-69.3,15.016-22.226,31.3-44,48.386-64.7,17.049-20.659,35.3-40.74,54.247-59.687s39.03-37.2,59.687-54.247c20.709-17.091,42.479-33.37,64.7-48.385,22.333-15.088,45.649-29.253,69.3-42.1,23.82-12.94,48.539-24.847,73.472-35.393,25.167-10.644,51.148-20.154,77.221-28.263,13.137-4.086,26.557-7.9,39.885-11.326,13.408-3.45,27.089-6.607,40.664-9.385,13.664-2.8,27.59-5.283,41.39-7.391,13.9-2.123,28.049-3.922,42.064-5.345,14.119-1.434,28.48-2.526,42.684-3.246,14.315-.726,28.867-1.094,43.252-1.094s28.938.368,43.252,1.094c14.2.72,28.565,1.812,42.684,3.246,14.014,1.423,28.166,3.222,42.064,5.345,13.8,2.109,27.726,4.6,41.39,7.391,13.574,2.778,27.255,5.935,40.664,9.385,13.327,3.429,26.746,7.24,39.885,11.326,26.074,8.11,52.055,17.619,77.221,28.263,24.932,10.545,49.651,22.453,73.471,35.393,23.65,12.847,46.966,27.012,69.3,42.1,22.226,15.016,44,31.295,64.7,48.385,20.658,17.048,40.74,35.3,59.687,54.247s37.2,39.03,54.248,59.687c17.092,20.711,33.371,42.48,48.385,64.7,15.088,22.333,29.253,45.649,42.1,69.3,12.94,23.821,24.848,48.54,35.393,73.471,10.644,25.166,20.154,51.147,28.263,77.222,4.086,13.138,7.9,26.557,11.326,39.885,3.45,13.409,6.607,27.09,9.385,40.664,2.8,13.66,5.282,27.585,7.392,41.39,2.123,13.9,3.922,28.05,5.345,42.064,1.434,14.118,2.526,28.479,3.246,42.684.726,14.315,1.094,28.867,1.094,43.252s-.368,28.937-1.094,43.252c-.72,14.2-1.812,28.566-3.246,42.684-1.423,14.014-3.222,28.167-5.345,42.064-2.109,13.8-4.6,27.73-7.392,41.39-2.778,13.575-5.936,27.256-9.385,40.664-3.429,13.327-7.24,26.746-11.326,39.885-8.11,26.074-17.619,52.055-28.263,77.221-10.545,24.932-22.453,49.651-35.393,73.472-12.848,23.65-27.013,46.966-42.1,69.3-15.014,22.224-31.293,43.994-48.385,64.7-17.047,20.657-35.3,40.739-54.248,59.687s-39.028,37.2-59.687,54.247c-20.711,17.092-42.48,33.371-64.7,48.385-22.333,15.088-45.649,29.253-69.3,42.1-23.821,12.94-48.54,24.848-73.471,35.393-25.166,10.644-51.147,20.153-77.221,28.263-13.139,4.086-26.558,7.9-39.885,11.326-13.409,3.45-27.09,6.607-40.664,9.385-13.66,2.8-27.586,5.282-41.39,7.391-13.9,2.124-28.054,3.923-42.064,5.345-14.118,1.434-28.479,2.526-42.684,3.246C-3425.563,2717.632-3440.115,2718-3454.5,2718Zm0-1368.039c-290.885,0-527.538,236.653-527.538,527.538s236.653,527.539,527.538,527.539,527.539-236.653,527.539-527.539S-3163.615,1349.962-3454.5,1349.962Z" transform="translate(4295 -1037)" fill="#fe9430"/></svg>