<svg xmlns="http://www.w3.org/2000/svg" width="1518" height="991" viewBox="0 0 1518 991"><path d="M476,1.289c-16.748.848-33.68,2.136-50.326,3.828-16.52,1.677-33.206,3.8-49.6,6.3-16.276,2.487-32.695,5.42-48.8,8.715-16.006,3.276-32.136,7-47.945,11.066-15.716,4.043-31.537,8.537-47.027,13.354-30.743,9.562-61.376,20.774-91.05,33.324-29.4,12.434-58.542,26.474-86.628,41.73C36.174,129.634,17.889,140.341,0,151.593V660.916C110.14,485.685,305.19,369,527,369c342.973,0,622,279.028,622,622h369c0-16.962-.433-34.119-1.289-51-.848-16.748-2.136-33.681-3.827-50.327-1.678-16.524-3.8-33.21-6.3-49.6-2.487-16.276-5.419-32.695-8.715-48.8-3.276-16.006-7-32.137-11.066-47.945-4.042-15.714-8.536-31.535-13.354-47.027-9.562-30.744-20.774-61.377-33.324-91.049-12.434-29.4-26.473-58.541-41.73-86.627-15.149-27.885-31.85-55.376-49.639-81.708-17.7-26.2-36.9-51.872-57.049-76.291-20.1-24.355-41.619-48.034-63.961-70.375s-46.018-43.859-70.375-63.961c-24.419-20.152-50.087-39.347-76.291-57.049-26.332-17.79-53.823-34.491-81.708-49.64-28.086-15.257-57.231-29.3-86.627-41.73-29.673-12.55-60.305-23.762-91.048-33.324C806.2,39.735,790.38,35.242,774.667,31.2c-15.81-4.067-31.941-7.79-47.945-11.066-16.106-3.3-32.526-6.228-48.8-8.715-16.392-2.5-33.078-4.624-49.6-6.3C611.678,3.426,594.745,2.137,578,1.289,561.12.433,543.962,0,527,0S492.881.433,476,1.289Z" transform="translate(0)" fill="#fbb800"/></svg>